<svg xmlns="http://www.w3.org/2000/svg" viewBox="0 0 1556 1636">
<rect x="1268" y="962" width="48" height="109" fill="rgb(75,97,233)" />
<rect x="1013" y="962" width="255" height="109" fill="rgb(34,102,150)" />
<rect x="1530" y="853" width="14" height="109" fill="rgb(249,107,67)" />
<rect x="910" y="962" width="103" height="109" fill="rgb(208,112,240)" />
<rect x="655" y="962" width="255" height="109" fill="rgb(167,117,157)" />
<rect x="400" y="962" width="255" height="109" fill="rgb(126,122,74)" />
<rect x="342" y="962" width="58" height="109" fill="rgb(85,127,247)" />
<rect x="317" y="962" width="25" height="109" fill="rgb(44,132,164)" />
<rect x="160" y="962" width="157" height="109" fill="rgb(3,137,81)" />
<rect x="10" y="962" width="150" height="109" fill="rgb(218,142,254)" />
<rect x="1515" y="853" width="15" height="109" fill="rgb(177,147,171)" />
<rect x="1260" y="853" width="255" height="109" fill="rgb(136,152,88)" />
<rect x="1150" y="853" width="110" height="109" fill="rgb(95,157,5)" />
<rect x="1110" y="853" width="40" height="109" fill="rgb(54,162,178)" />
<rect x="1103" y="853" width="7" height="109" fill="rgb(13,167,95)" />
<rect x="1096" y="853" width="7" height="109" fill="rgb(228,172,12)" />
<rect x="1031" y="853" width="65" height="109" fill="rgb(187,177,185)" />
<rect x="947" y="853" width="84" height="109" fill="rgb(146,182,102)" />
<rect x="904" y="853" width="43" height="109" fill="rgb(105,187,19)" />
<rect x="872" y="853" width="32" height="109" fill="rgb(64,192,192)" />
<rect x="865" y="853" width="7" height="109" fill="rgb(23,197,109)" />
<rect x="1538" y="744" width="7" height="109" fill="rgb(238,202,26)" />
<rect x="844" y="853" width="21" height="109" fill="rgb(197,207,199)" />
<rect x="1506" y="744" width="32" height="109" fill="rgb(156,212,116)" />
<rect x="775" y="853" width="69" height="109" fill="rgb(115,217,33)" />
<rect x="1448" y="744" width="58" height="109" fill="rgb(74,222,206)" />
<rect x="1397" y="744" width="51" height="109" fill="rgb(33,227,123)" />
<rect x="1376" y="744" width="21" height="109" fill="rgb(248,232,40)" />
<rect x="520" y="853" width="255" height="109" fill="rgb(207,237,213)" />
<rect x="1525" y="635" width="18" height="109" fill="rgb(166,242,130)" />
<rect x="1507" y="635" width="18" height="109" fill="rgb(125,247,47)" />
<rect x="265" y="853" width="255" height="109" fill="rgb(84,252,220)" />
<rect x="10" y="853" width="255" height="109" fill="rgb(43,1,137)" />
<rect x="1460" y="635" width="47" height="109" fill="rgb(2,6,54)" />
<rect x="1121" y="744" width="255" height="109" fill="rgb(217,11,227)" />
<rect x="866" y="744" width="255" height="109" fill="rgb(176,16,144)" />
<rect x="611" y="744" width="255" height="109" fill="rgb(135,21,61)" />
<rect x="356" y="744" width="255" height="109" fill="rgb(94,26,234)" />
<rect x="214" y="744" width="142" height="109" fill="rgb(53,31,151)" />
<rect x="10" y="744" width="204" height="109" fill="rgb(12,36,68)" />
<rect x="1205" y="635" width="255" height="109" fill="rgb(227,41,241)" />
<rect x="950" y="635" width="255" height="109" fill="rgb(186,46,158)" />
<rect x="947" y="635" width="3" height="109" fill="rgb(145,51,75)" />
<rect x="937" y="635" width="10" height="109" fill="rgb(104,56,248)" />
<rect x="900" y="635" width="37" height="109" fill="rgb(63,61,165)" />
<rect x="894" y="635" width="6" height="109" fill="rgb(22,66,82)" />
<rect x="888" y="635" width="6" height="109" fill="rgb(237,71,255)" />
<rect x="885" y="635" width="3" height="109" fill="rgb(196,76,172)" />
<rect x="882" y="635" width="3" height="109" fill="rgb(155,81,89)" />
<rect x="879" y="635" width="3" height="109" fill="rgb(114,86,6)" />
<rect x="876" y="635" width="3" height="109" fill="rgb(73,91,179)" />
<rect x="873" y="635" width="3" height="109" fill="rgb(32,96,96)" />
<rect x="813" y="635" width="60" height="109" fill="rgb(247,101,13)" />
<rect x="736" y="635" width="77" height="109" fill="rgb(206,106,186)" />
<rect x="696" y="635" width="40" height="109" fill="rgb(165,111,103)" />
<rect x="666" y="635" width="30" height="109" fill="rgb(124,116,20)" />
<rect x="663" y="635" width="3" height="109" fill="rgb(83,121,193)" />
<rect x="1540" y="526" width="6" height="109" fill="rgb(42,126,110)" />
<rect x="1534" y="526" width="6" height="109" fill="rgb(1,131,27)" />
<rect x="643" y="635" width="20" height="109" fill="rgb(216,136,200)" />
<rect x="603" y="635" width="40" height="109" fill="rgb(175,141,117)" />
<rect x="1543" y="417" width="3" height="109" fill="rgb(134,146,34)" />
<rect x="573" y="635" width="30" height="109" fill="rgb(93,151,207)" />
<rect x="509" y="635" width="64" height="109" fill="rgb(52,156,124)" />
<rect x="1480" y="526" width="54" height="109" fill="rgb(11,161,41)" />
<rect x="1470" y="526" width="10" height="109" fill="rgb(226,166,214)" />
<rect x="1541" y="308" width="3" height="109" fill="rgb(185,171,131)" />
<rect x="1423" y="526" width="47" height="109" fill="rgb(144,176,48)" />
<rect x="1403" y="526" width="20" height="109" fill="rgb(103,181,221)" />
<rect x="266" y="635" width="243" height="109" fill="rgb(62,186,138)" />
<rect x="1527" y="417" width="16" height="109" fill="rgb(21,191,55)" />
<rect x="1525" y="308" width="16" height="109" fill="rgb(236,196,228)" />
<rect x="10" y="635" width="256" height="109" fill="rgb(195,201,145)" />
<rect x="1150" y="526" width="253" height="109" fill="rgb(154,206,62)" />
<rect x="894" y="526" width="256" height="109" fill="rgb(113,211,235)" />
<rect x="654" y="526" width="240" height="109" fill="rgb(72,216,152)" />
<rect x="398" y="526" width="256" height="109" fill="rgb(31,221,69)" />
<rect x="142" y="526" width="256" height="109" fill="rgb(246,226,242)" />
<rect x="10" y="526" width="132" height="109" fill="rgb(205,231,159)" />
<rect x="1338" y="417" width="189" height="109" fill="rgb(164,236,76)" />
<rect x="1088" y="417" width="250" height="109" fill="rgb(123,241,249)" />
<rect x="996" y="417" width="92" height="107" fill="rgb(142,170,250)" />
<rect x="946" y="417" width="50" height="107" fill="rgb(101,175,167)" />
<rect x="880" y="417" width="66" height="107" fill="rgb(60,180,84)" />
<rect x="807" y="417" width="73" height="107" fill="rgb(19,185,1)" />
<rect x="715" y="417" width="92" height="107" fill="rgb(234,190,174)" />
<rect x="665" y="417" width="50" height="107" fill="rgb(193,195,91)" />
<rect x="619" y="417" width="46" height="107" fill="rgb(207,237,213)" />
<rect x="558" y="417" width="61" height="107" fill="rgb(166,242,130)" />
<rect x="490" y="417" width="68" height="107" fill="rgb(125,247,47)" />
<rect x="405" y="417" width="85" height="107" fill="rgb(84,252,220)" />
<rect x="359" y="417" width="46" height="107" fill="rgb(43,1,137)" />
<rect x="274" y="417" width="85" height="107" fill="rgb(248,232,40)" />
<rect x="233" y="417" width="41" height="109" fill="rgb(23,197,109)" />
<rect x="127" y="417" width="106" height="109" fill="rgb(64,192,192)" />
<rect x="1523" y="308" width="2" height="109" fill="rgb(124,116,20)" />
<rect x="1465" y="308" width="58" height="109" fill="rgb(238,202,26)" />
<rect x="1451" y="308" width="14" height="109" fill="rgb(186,46,158)" />
<rect x="1446" y="308" width="5" height="109" fill="rgb(227,41,241)" />
<rect x="1442" y="308" width="4" height="109" fill="rgb(12,36,68)" />
<rect x="10" y="417" width="117" height="109" fill="rgb(105,187,19)" />
<rect x="1304" y="308" width="138" height="109" fill="rgb(146,182,102)" />
<rect x="1173" y="308" width="131" height="109" fill="rgb(187,177,185)" />
<rect x="1072" y="308" width="101" height="109" fill="rgb(228,172,12)" />
<rect x="913" y="308" width="159" height="109" fill="rgb(13,167,95)" />
<rect x="839" y="308" width="74" height="109" fill="rgb(54,162,178)" />
<rect x="752" y="308" width="87" height="109" fill="rgb(95,157,5)" />
<rect x="674" y="308" width="78" height="109" fill="rgb(136,152,88)" />
<rect x="571" y="308" width="103" height="109" fill="rgb(177,147,171)" />
<rect x="537" y="308" width="34" height="109" fill="rgb(218,142,254)" />
<rect x="492" y="308" width="45" height="109" fill="rgb(3,137,81)" />
<rect x="465" y="308" width="27" height="109" fill="rgb(44,132,164)" />
<rect x="460" y="308" width="5" height="109" fill="rgb(85,127,247)" />
<rect x="455" y="308" width="5" height="109" fill="rgb(126,122,74)" />
<rect x="401" y="308" width="54" height="109" fill="rgb(167,117,157)" />
<rect x="357" y="308" width="44" height="109" fill="rgb(208,112,240)" />
<rect x="282" y="308" width="75" height="109" fill="rgb(249,107,67)" />
<rect x="276" y="308" width="6" height="109" fill="rgb(34,102,150)" />
<rect x="262" y="308" width="14" height="109" fill="rgb(75,97,233)" />
<rect x="1544" y="199" width="1" height="109" fill="rgb(237,71,255)" />
<rect x="259" y="308" width="3" height="109" fill="rgb(116,92,60)" />
<rect x="243" y="308" width="16" height="109" fill="rgb(116,92,60)" />
<rect x="1525" y="199" width="19" height="109" fill="rgb(157,87,143)" />
<rect x="1516" y="199" width="9" height="109" fill="rgb(198,82,226)" />
<rect x="1515" y="199" width="1" height="109" fill="rgb(3,137,81)" />
<rect x="1503" y="199" width="12" height="109" fill="rgb(239,77,53)" />
<rect x="10" y="308" width="233" height="109" fill="rgb(24,72,136)" />
<rect x="1497" y="199" width="6" height="109" fill="rgb(65,67,219)" />
<rect x="1495" y="199" width="2" height="109" fill="rgb(248,232,40)" />
<rect x="1493" y="199" width="2" height="109" fill="rgb(155,81,89)" />
<rect x="1492" y="199" width="1" height="109" fill="rgb(126,122,74)" />
<rect x="1483" y="199" width="9" height="109" fill="rgb(106,62,46)" />
<rect x="1471" y="199" width="12" height="109" fill="rgb(147,57,129)" />
<rect x="1447" y="199" width="24" height="109" fill="rgb(188,52,212)" />
<rect x="1429" y="199" width="18" height="109" fill="rgb(229,47,39)" />
<rect x="1428" y="199" width="1" height="109" fill="rgb(249,107,67)" />
<rect x="1427" y="199" width="1" height="109" fill="rgb(33,227,123)" />
<rect x="1426" y="199" width="1" height="109" fill="rgb(104,56,248)" />
<rect x="1425" y="199" width="1" height="109" fill="rgb(157,87,143)" />
<rect x="1545" y="90" width="1" height="109" fill="rgb(34,102,150)" />
<rect x="1423" y="199" width="2" height="109" fill="rgb(186,46,158)" />
<rect x="1421" y="199" width="2" height="109" fill="rgb(198,82,226)" />
<rect x="1534" y="90" width="11" height="109" fill="rgb(14,42,122)" />
<rect x="1531" y="90" width="3" height="109" fill="rgb(74,222,206)" />
<rect x="1530" y="90" width="1" height="109" fill="rgb(227,41,241)" />
<rect x="1399" y="199" width="22" height="109" fill="rgb(33,227,123)" />
<rect x="1369" y="199" width="30" height="109" fill="rgb(74,222,206)" />
<rect x="1332" y="199" width="37" height="109" fill="rgb(115,217,33)" />
<rect x="1182" y="199" width="150" height="109" fill="rgb(156,212,116)" />
<rect x="1105" y="199" width="77" height="109" fill="rgb(197,207,199)" />
<rect x="849" y="199" width="256" height="109" fill="rgb(82,246,166)" />
<rect x="826" y="199" width="23" height="109" fill="rgb(183,165,77)" />
<rect x="794" y="199" width="32" height="109" fill="rgb(224,160,160)" />
<rect x="1515" y="90" width="15" height="109" fill="rgb(9,155,243)" />
<rect x="754" y="199" width="40" height="109" fill="rgb(50,150,70)" />
<rect x="592" y="199" width="162" height="109" fill="rgb(91,145,153)" />
<rect x="508" y="199" width="84" height="109" fill="rgb(132,140,236)" />
<rect x="445" y="199" width="63" height="109" fill="rgb(173,135,63)" />
<rect x="401" y="199" width="44" height="109" fill="rgb(214,130,146)" />
<rect x="287" y="199" width="114" height="109" fill="rgb(255,125,229)" />
<rect x="160" y="199" width="127" height="109" fill="rgb(40,120,56)" />
<rect x="10" y="199" width="150" height="109" fill="rgb(81,115,139)" />
<rect x="1373" y="90" width="142" height="109" fill="rgb(122,110,222)" />
<rect x="1263" y="90" width="110" height="109" fill="rgb(163,105,49)" />
<rect x="1091" y="90" width="172" height="109" fill="rgb(204,100,132)" />
<rect x="1011" y="90" width="80" height="109" fill="rgb(245,95,215)" />
<rect x="917" y="90" width="94" height="109" fill="rgb(30,90,42)" />
<rect x="832" y="90" width="85" height="109" fill="rgb(71,85,125)" />
<rect x="721" y="90" width="111" height="109" fill="rgb(112,80,208)" />
<rect x="684" y="90" width="37" height="109" fill="rgb(153,75,35)" />
<rect x="636" y="90" width="48" height="109" fill="rgb(194,70,118)" />
<rect x="607" y="90" width="29" height="109" fill="rgb(235,65,201)" />
<rect x="548" y="90" width="59" height="109" fill="rgb(20,60,28)" />
<rect x="501" y="90" width="47" height="109" fill="rgb(61,55,111)" />
<rect x="420" y="90" width="81" height="109" fill="rgb(102,50,194)" />
<rect x="405" y="90" width="15" height="109" fill="rgb(143,45,21)" />
<rect x="387" y="90" width="18" height="109" fill="rgb(184,40,104)" />
<rect x="366" y="90" width="21" height="109" fill="rgb(225,35,187)" />
<rect x="356" y="90" width="10" height="109" fill="rgb(10,30,14)" />
<rect x="343" y="90" width="13" height="109" fill="rgb(51,25,97)" />
<rect x="91" y="90" width="252" height="109" fill="rgb(92,20,180)" />
<rect x="81" y="90" width="10" height="109" fill="rgb(133,15,7)" />
<rect x="68" y="90" width="13" height="109" fill="rgb(174,10,90)" />
<rect x="42" y="90" width="26" height="109" fill="rgb(215,5,173)" />
<rect x="22" y="90" width="20" height="109" fill="rgb(0,0,0)" />
<rect x="10" y="90" width="12" height="109" fill="rgb(41,251,83)" />
<rect x="10" y="90" width="1536" height="1536" fill="none" stroke="black" stroke-width="5" />
<text x="10" y="80" font-family="Arial" font-size="80" fill="black">shelf-pack-cpp 1536x1536 186 items</text>
</svg>