<svg xmlns="http://www.w3.org/2000/svg" viewBox="0 0 1556 1636">
<rect x="423" y="1071" width="48" height="109" fill="rgb(75,97,233)" />
<rect x="521" y="526" width="255" height="109" fill="rgb(34,102,150)" />
<rect x="503" y="744" width="14" height="109" fill="rgb(249,107,67)" />
<rect x="266" y="1398" width="103" height="109" fill="rgb(208,112,240)" />
<rect x="266" y="1289" width="255" height="109" fill="rgb(167,117,157)" />
<rect x="266" y="1180" width="255" height="109" fill="rgb(126,122,74)" />
<rect x="441" y="962" width="58" height="109" fill="rgb(85,127,247)" />
<rect x="416" y="962" width="25" height="109" fill="rgb(44,132,164)" />
<rect x="266" y="1071" width="157" height="109" fill="rgb(3,137,81)" />
<rect x="266" y="962" width="150" height="109" fill="rgb(218,142,254)" />
<rect x="488" y="744" width="15" height="109" fill="rgb(177,147,171)" />
<rect x="266" y="853" width="255" height="109" fill="rgb(136,152,88)" />
<rect x="378" y="744" width="110" height="109" fill="rgb(95,157,5)" />
<rect x="338" y="744" width="40" height="109" fill="rgb(54,162,178)" />
<rect x="331" y="744" width="7" height="109" fill="rgb(13,167,95)" />
<rect x="1539" y="417" width="7" height="109" fill="rgb(228,172,12)" />
<rect x="266" y="744" width="65" height="109" fill="rgb(187,177,185)" />
<rect x="431" y="635" width="84" height="109" fill="rgb(146,182,102)" />
<rect x="388" y="635" width="43" height="109" fill="rgb(105,187,19)" />
<rect x="356" y="635" width="32" height="109" fill="rgb(64,192,192)" />
<rect x="1538" y="308" width="7" height="109" fill="rgb(23,197,109)" />
<rect x="1531" y="308" width="7" height="109" fill="rgb(238,202,26)" />
<rect x="335" y="635" width="21" height="109" fill="rgb(197,207,199)" />
<rect x="1507" y="417" width="32" height="109" fill="rgb(156,212,116)" />
<rect x="266" y="635" width="69" height="109" fill="rgb(115,217,33)" />
<rect x="1449" y="417" width="58" height="109" fill="rgb(74,222,206)" />
<rect x="1398" y="417" width="51" height="109" fill="rgb(33,227,123)" />
<rect x="1377" y="417" width="21" height="109" fill="rgb(248,232,40)" />
<rect x="266" y="526" width="255" height="109" fill="rgb(207,237,213)" />
<rect x="1359" y="417" width="18" height="109" fill="rgb(166,242,130)" />
<rect x="1513" y="308" width="18" height="109" fill="rgb(125,247,47)" />
<rect x="1104" y="417" width="255" height="109" fill="rgb(84,252,220)" />
<rect x="849" y="417" width="255" height="109" fill="rgb(43,1,137)" />
<rect x="802" y="417" width="47" height="109" fill="rgb(2,6,54)" />
<rect x="710" y="417" width="92" height="107" fill="rgb(142,170,250)" />
<rect x="660" y="417" width="50" height="107" fill="rgb(101,175,167)" />
<rect x="594" y="417" width="66" height="107" fill="rgb(60,180,84)" />
<rect x="521" y="417" width="73" height="107" fill="rgb(19,185,1)" />
<rect x="1421" y="308" width="92" height="107" fill="rgb(234,190,174)" />
<rect x="1371" y="308" width="50" height="107" fill="rgb(193,195,91)" />
<rect x="119" y="1507" width="1" height="109" fill="rgb(157,87,143)" />
<rect x="118" y="1507" width="1" height="109" fill="rgb(104,56,248)" />
<rect x="265" y="1289" width="1" height="109" fill="rgb(33,227,123)" />
<rect x="264" y="1289" width="1" height="109" fill="rgb(249,107,67)" />
<rect x="265" y="962" width="1" height="109" fill="rgb(126,122,74)" />
<rect x="264" y="1180" width="2" height="109" fill="rgb(155,81,89)" />
<rect x="262" y="1180" width="2" height="109" fill="rgb(248,232,40)" />
<rect x="1365" y="308" width="6" height="109" fill="rgb(65,67,219)" />
<rect x="264" y="962" width="1" height="109" fill="rgb(3,137,81)" />
<rect x="263" y="853" width="3" height="109" fill="rgb(116,92,60)" />
<rect x="265" y="417" width="1" height="109" fill="rgb(237,71,255)" />
<rect x="1359" y="308" width="6" height="109" fill="rgb(34,102,150)" />
<rect x="260" y="1398" width="5" height="109" fill="rgb(126,122,74)" />
<rect x="255" y="1398" width="5" height="109" fill="rgb(85,127,247)" />
<rect x="260" y="962" width="4" height="109" fill="rgb(12,36,68)" />
<rect x="258" y="853" width="5" height="109" fill="rgb(227,41,241)" />
<rect x="263" y="417" width="2" height="109" fill="rgb(124,116,20)" />
<rect x="262" y="417" width="1" height="109" fill="rgb(34,102,150)" />
<rect x="260" y="417" width="2" height="109" fill="rgb(186,46,158)" />
<rect x="1544" y="199" width="2" height="109" fill="rgb(198,82,226)" />
<rect x="1541" y="199" width="3" height="109" fill="rgb(74,222,206)" />
<rect x="1540" y="199" width="1" height="109" fill="rgb(227,41,241)" />
<rect x="266" y="417" width="255" height="109" fill="rgb(217,11,227)" />
<rect x="95" y="1507" width="23" height="109" fill="rgb(183,165,77)" />
<rect x="1327" y="308" width="32" height="109" fill="rgb(224,160,160)" />
<rect x="249" y="1289" width="15" height="109" fill="rgb(9,155,243)" />
<rect x="215" y="1398" width="40" height="109" fill="rgb(50,150,70)" />
<rect x="1165" y="308" width="162" height="109" fill="rgb(91,145,153)" />
<rect x="1081" y="308" width="84" height="109" fill="rgb(132,140,236)" />
<rect x="201" y="1507" width="63" height="109" fill="rgb(173,135,63)" />
<rect x="205" y="1289" width="44" height="109" fill="rgb(214,130,146)" />
<rect x="967" y="308" width="114" height="109" fill="rgb(255,125,229)" />
<rect x="840" y="308" width="127" height="109" fill="rgb(40,120,56)" />
<rect x="690" y="308" width="150" height="109" fill="rgb(81,115,139)" />
<rect x="548" y="308" width="142" height="109" fill="rgb(122,110,222)" />
<rect x="438" y="308" width="110" height="109" fill="rgb(163,105,49)" />
<rect x="266" y="308" width="172" height="109" fill="rgb(204,100,132)" />
<rect x="121" y="1507" width="80" height="109" fill="rgb(245,95,215)" />
<rect x="121" y="1398" width="94" height="109" fill="rgb(30,90,42)" />
<rect x="10" y="1507" width="85" height="109" fill="rgb(71,85,125)" />
<rect x="10" y="1398" width="111" height="109" fill="rgb(112,80,208)" />
<rect x="168" y="1289" width="37" height="109" fill="rgb(153,75,35)" />
<rect x="120" y="1289" width="48" height="109" fill="rgb(194,70,118)" />
<rect x="91" y="1289" width="29" height="109" fill="rgb(235,65,201)" />
<rect x="199" y="853" width="59" height="109" fill="rgb(20,60,28)" />
<rect x="219" y="744" width="47" height="109" fill="rgb(61,55,111)" />
<rect x="10" y="1289" width="81" height="109" fill="rgb(102,50,194)" />
<rect x="204" y="744" width="15" height="109" fill="rgb(143,45,21)" />
<rect x="186" y="744" width="18" height="109" fill="rgb(184,40,104)" />
<rect x="165" y="744" width="21" height="109" fill="rgb(225,35,187)" />
<rect x="155" y="744" width="10" height="109" fill="rgb(10,30,14)" />
<rect x="142" y="744" width="13" height="109" fill="rgb(51,25,97)" />
<rect x="10" y="1180" width="252" height="109" fill="rgb(92,20,180)" />
<rect x="250" y="417" width="10" height="109" fill="rgb(133,15,7)" />
<rect x="1527" y="199" width="13" height="109" fill="rgb(174,10,90)" />
<rect x="1501" y="199" width="26" height="109" fill="rgb(215,5,173)" />
<rect x="1481" y="199" width="20" height="109" fill="rgb(0,0,0)" />
<rect x="1469" y="199" width="12" height="109" fill="rgb(41,251,83)" />
<rect x="10" y="1071" width="256" height="109" fill="rgb(82,246,166)" />
<rect x="10" y="962" width="250" height="109" fill="rgb(123,241,249)" />
<rect x="10" y="853" width="189" height="109" fill="rgb(164,236,76)" />
<rect x="10" y="744" width="132" height="109" fill="rgb(205,231,159)" />
<rect x="10" y="635" width="256" height="109" fill="rgb(246,226,242)" />
<rect x="10" y="526" width="256" height="109" fill="rgb(31,221,69)" />
<rect x="10" y="417" width="240" height="109" fill="rgb(72,216,152)" />
<rect x="10" y="308" width="256" height="109" fill="rgb(113,211,235)" />
<rect x="1216" y="199" width="253" height="109" fill="rgb(154,206,62)" />
<rect x="960" y="199" width="256" height="109" fill="rgb(195,201,145)" />
<rect x="944" y="199" width="16" height="109" fill="rgb(236,196,228)" />
<rect x="928" y="199" width="16" height="109" fill="rgb(21,191,55)" />
<rect x="685" y="199" width="243" height="109" fill="rgb(62,186,138)" />
<rect x="665" y="199" width="20" height="109" fill="rgb(103,181,221)" />
<rect x="618" y="199" width="47" height="109" fill="rgb(144,176,48)" />
<rect x="615" y="199" width="3" height="109" fill="rgb(185,171,131)" />
<rect x="605" y="199" width="10" height="109" fill="rgb(226,166,214)" />
<rect x="551" y="199" width="54" height="109" fill="rgb(11,161,41)" />
<rect x="487" y="199" width="64" height="109" fill="rgb(52,156,124)" />
<rect x="457" y="199" width="30" height="109" fill="rgb(93,151,207)" />
<rect x="454" y="199" width="3" height="109" fill="rgb(134,146,34)" />
<rect x="414" y="199" width="40" height="109" fill="rgb(175,141,117)" />
<rect x="394" y="199" width="20" height="109" fill="rgb(216,136,200)" />
<rect x="388" y="199" width="6" height="109" fill="rgb(1,131,27)" />
<rect x="382" y="199" width="6" height="109" fill="rgb(42,126,110)" />
<rect x="1543" y="90" width="3" height="109" fill="rgb(83,121,193)" />
<rect x="1513" y="90" width="30" height="109" fill="rgb(124,116,20)" />
<rect x="342" y="199" width="40" height="109" fill="rgb(165,111,103)" />
<rect x="265" y="199" width="77" height="109" fill="rgb(206,106,186)" />
<rect x="1453" y="90" width="60" height="109" fill="rgb(247,101,13)" />
<rect x="1450" y="90" width="3" height="109" fill="rgb(32,96,96)" />
<rect x="1447" y="90" width="3" height="109" fill="rgb(73,91,179)" />
<rect x="1444" y="90" width="3" height="109" fill="rgb(114,86,6)" />
<rect x="1441" y="90" width="3" height="109" fill="rgb(155,81,89)" />
<rect x="1438" y="90" width="3" height="109" fill="rgb(196,76,172)" />
<rect x="1432" y="90" width="6" height="109" fill="rgb(237,71,255)" />
<rect x="1426" y="90" width="6" height="109" fill="rgb(22,66,82)" />
<rect x="1389" y="90" width="37" height="109" fill="rgb(63,61,165)" />
<rect x="1379" y="90" width="10" height="109" fill="rgb(104,56,248)" />
<rect x="1376" y="90" width="3" height="109" fill="rgb(145,51,75)" />
<rect x="10" y="199" width="255" height="109" fill="rgb(186,46,158)" />
<rect x="1121" y="90" width="255" height="109" fill="rgb(227,41,241)" />
<rect x="917" y="90" width="204" height="109" fill="rgb(12,36,68)" />
<rect x="775" y="90" width="142" height="109" fill="rgb(53,31,151)" />
<rect x="520" y="90" width="255" height="109" fill="rgb(94,26,234)" />
<rect x="265" y="90" width="255" height="109" fill="rgb(135,21,61)" />
<rect x="10" y="90" width="255" height="109" fill="rgb(176,16,144)" />
<rect x="10" y="90" width="1536" height="1536" fill="none" stroke="black" stroke-width="5" />
<text x="10" y="80" font-family="Arial" font-size="80" fill="black">RectAllocator 1536x1536 145 items</text>
</svg>