<svg xmlns="http://www.w3.org/2000/svg" viewBox="0 0 1556 1636">
<rect x="1400" y="1176" width="48" height="109" fill="rgb(75,97,233)" />
<rect x="218" y="1178" width="255" height="109" fill="rgb(34,102,150)" />
<rect x="1521" y="1067" width="14" height="109" fill="rgb(249,107,67)" />
<rect x="1297" y="1176" width="103" height="109" fill="rgb(208,112,240)" />
<rect x="1042" y="1176" width="255" height="109" fill="rgb(167,117,157)" />
<rect x="787" y="1176" width="255" height="109" fill="rgb(126,122,74)" />
<rect x="160" y="1071" width="58" height="109" fill="rgb(85,127,247)" />
<rect x="1496" y="1067" width="25" height="109" fill="rgb(44,132,164)" />
<rect x="630" y="1176" width="157" height="109" fill="rgb(3,137,81)" />
<rect x="10" y="1071" width="150" height="109" fill="rgb(218,142,254)" />
<rect x="1481" y="1067" width="15" height="109" fill="rgb(177,147,171)" />
<rect x="375" y="1069" width="255" height="109" fill="rgb(136,152,88)" />
<rect x="265" y="1069" width="110" height="109" fill="rgb(95,157,5)" />
<rect x="1441" y="1067" width="40" height="109" fill="rgb(54,162,178)" />
<rect x="1434" y="1067" width="7" height="109" fill="rgb(13,167,95)" />
<rect x="1427" y="1067" width="7" height="109" fill="rgb(228,172,12)" />
<rect x="1362" y="1067" width="65" height="109" fill="rgb(187,177,185)" />
<rect x="1278" y="1067" width="84" height="109" fill="rgb(146,182,102)" />
<rect x="1235" y="1067" width="43" height="109" fill="rgb(105,187,19)" />
<rect x="1203" y="1067" width="32" height="109" fill="rgb(64,192,192)" />
<rect x="1196" y="1067" width="7" height="109" fill="rgb(23,197,109)" />
<rect x="1189" y="1067" width="7" height="109" fill="rgb(238,202,26)" />
<rect x="1523" y="958" width="21" height="109" fill="rgb(197,207,199)" />
<rect x="1157" y="1067" width="32" height="109" fill="rgb(156,212,116)" />
<rect x="1088" y="1067" width="69" height="109" fill="rgb(115,217,33)" />
<rect x="1030" y="1067" width="58" height="109" fill="rgb(74,222,206)" />
<rect x="1472" y="958" width="51" height="109" fill="rgb(33,227,123)" />
<rect x="1451" y="958" width="21" height="109" fill="rgb(248,232,40)" />
<rect x="775" y="1067" width="255" height="109" fill="rgb(207,237,213)" />
<rect x="1516" y="849" width="18" height="109" fill="rgb(166,242,130)" />
<rect x="1498" y="849" width="18" height="109" fill="rgb(125,247,47)" />
<rect x="10" y="962" width="255" height="109" fill="rgb(84,252,220)" />
<rect x="520" y="960" width="255" height="109" fill="rgb(43,1,137)" />
<rect x="1451" y="849" width="47" height="109" fill="rgb(2,6,54)" />
<rect x="265" y="960" width="255" height="109" fill="rgb(217,11,227)" />
<rect x="1196" y="958" width="255" height="109" fill="rgb(176,16,144)" />
<rect x="941" y="958" width="255" height="109" fill="rgb(135,21,61)" />
<rect x="10" y="853" width="255" height="109" fill="rgb(94,26,234)" />
<rect x="799" y="851" width="142" height="109" fill="rgb(53,31,151)" />
<rect x="595" y="851" width="204" height="109" fill="rgb(12,36,68)" />
<rect x="340" y="851" width="255" height="109" fill="rgb(227,41,241)" />
<rect x="1159" y="849" width="255" height="109" fill="rgb(186,46,158)" />
<rect x="337" y="744" width="3" height="109" fill="rgb(145,51,75)" />
<rect x="327" y="744" width="10" height="109" fill="rgb(104,56,248)" />
<rect x="290" y="744" width="37" height="109" fill="rgb(63,61,165)" />
<rect x="284" y="744" width="6" height="109" fill="rgb(22,66,82)" />
<rect x="278" y="744" width="6" height="109" fill="rgb(237,71,255)" />
<rect x="275" y="744" width="3" height="109" fill="rgb(196,76,172)" />
<rect x="272" y="744" width="3" height="109" fill="rgb(155,81,89)" />
<rect x="269" y="744" width="3" height="109" fill="rgb(114,86,6)" />
<rect x="266" y="744" width="3" height="109" fill="rgb(73,91,179)" />
<rect x="263" y="744" width="3" height="109" fill="rgb(32,96,96)" />
<rect x="203" y="744" width="60" height="109" fill="rgb(247,101,13)" />
<rect x="126" y="744" width="77" height="109" fill="rgb(206,106,186)" />
<rect x="86" y="744" width="40" height="109" fill="rgb(165,111,103)" />
<rect x="56" y="744" width="30" height="109" fill="rgb(124,116,20)" />
<rect x="1542" y="740" width="3" height="109" fill="rgb(83,121,193)" />
<rect x="50" y="744" width="6" height="109" fill="rgb(42,126,110)" />
<rect x="1153" y="742" width="6" height="109" fill="rgb(1,131,27)" />
<rect x="1522" y="740" width="20" height="109" fill="rgb(216,136,200)" />
<rect x="10" y="744" width="40" height="109" fill="rgb(175,141,117)" />
<rect x="1541" y="631" width="3" height="109" fill="rgb(134,146,34)" />
<rect x="1123" y="742" width="30" height="109" fill="rgb(93,151,207)" />
<rect x="1059" y="742" width="64" height="109" fill="rgb(52,156,124)" />
<rect x="1005" y="742" width="54" height="109" fill="rgb(11,161,41)" />
<rect x="1512" y="740" width="10" height="109" fill="rgb(226,166,214)" />
<rect x="1541" y="522" width="3" height="109" fill="rgb(185,171,131)" />
<rect x="1465" y="740" width="47" height="109" fill="rgb(144,176,48)" />
<rect x="1445" y="740" width="20" height="109" fill="rgb(103,181,221)" />
<rect x="762" y="742" width="243" height="109" fill="rgb(62,186,138)" />
<rect x="1429" y="740" width="16" height="109" fill="rgb(21,191,55)" />
<rect x="1413" y="740" width="16" height="109" fill="rgb(236,196,228)" />
<rect x="506" y="742" width="256" height="109" fill="rgb(195,201,145)" />
<rect x="1160" y="740" width="253" height="109" fill="rgb(154,206,62)" />
<rect x="250" y="635" width="256" height="109" fill="rgb(113,211,235)" />
<rect x="10" y="635" width="240" height="109" fill="rgb(72,216,152)" />
<rect x="904" y="633" width="256" height="109" fill="rgb(31,221,69)" />
<rect x="648" y="633" width="256" height="109" fill="rgb(246,226,242)" />
<rect x="516" y="631" width="132" height="109" fill="rgb(205,231,159)" />
<rect x="1352" y="631" width="189" height="109" fill="rgb(164,236,76)" />
<rect x="266" y="526" width="250" height="109" fill="rgb(123,241,249)" />
<rect x="10" y="526" width="256" height="109" fill="rgb(82,246,166)" />
<rect x="1340" y="524" width="12" height="109" fill="rgb(41,251,83)" />
<rect x="1320" y="524" width="20" height="109" fill="rgb(0,0,0)" />
<rect x="1294" y="524" width="26" height="109" fill="rgb(215,5,173)" />
<rect x="1281" y="524" width="13" height="109" fill="rgb(174,10,90)" />
<rect x="1271" y="524" width="10" height="109" fill="rgb(133,15,7)" />
<rect x="1019" y="524" width="252" height="109" fill="rgb(92,20,180)" />
<rect x="1006" y="524" width="13" height="109" fill="rgb(51,25,97)" />
<rect x="996" y="524" width="10" height="109" fill="rgb(10,30,14)" />
<rect x="975" y="524" width="21" height="109" fill="rgb(225,35,187)" />
<rect x="957" y="524" width="18" height="109" fill="rgb(184,40,104)" />
<rect x="1523" y="522" width="15" height="109" fill="rgb(143,45,21)" />
<rect x="876" y="524" width="81" height="109" fill="rgb(102,50,194)" />
<rect x="829" y="524" width="47" height="109" fill="rgb(61,55,111)" />
<rect x="770" y="524" width="59" height="109" fill="rgb(20,60,28)" />
<rect x="741" y="524" width="29" height="109" fill="rgb(235,65,201)" />
<rect x="693" y="524" width="48" height="109" fill="rgb(194,70,118)" />
<rect x="1486" y="522" width="37" height="109" fill="rgb(153,75,35)" />
<rect x="601" y="524" width="92" height="107" fill="rgb(142,170,250)" />
<rect x="1436" y="417" width="50" height="107" fill="rgb(101,175,167)" />
<rect x="1370" y="417" width="66" height="107" fill="rgb(60,180,84)" />
<rect x="1297" y="417" width="73" height="107" fill="rgb(19,185,1)" />
<rect x="1205" y="417" width="92" height="107" fill="rgb(234,190,174)" />
<rect x="1155" y="417" width="50" height="107" fill="rgb(193,195,91)" />
<rect x="1106" y="417" width="49" height="107" fill="rgb(202,94,78)" />
<rect x="1080" y="417" width="26" height="107" fill="rgb(161,99,251)" />
<rect x="1511" y="415" width="35" height="107" fill="rgb(120,104,168)" />
<rect x="1041" y="417" width="39" height="107" fill="rgb(79,109,85)" />
<rect x="992" y="417" width="49" height="107" fill="rgb(7,149,189)" />
<rect x="1511" y="308" width="26" height="107" fill="rgb(222,154,106)" />
<rect x="946" y="417" width="46" height="107" fill="rgb(207,237,213)" />
<rect x="885" y="417" width="61" height="107" fill="rgb(166,242,130)" />
<rect x="817" y="417" width="68" height="107" fill="rgb(125,247,47)" />
<rect x="732" y="417" width="85" height="107" fill="rgb(84,252,220)" />
<rect x="686" y="417" width="46" height="107" fill="rgb(43,1,137)" />
<rect x="601" y="417" width="85" height="107" fill="rgb(248,232,40)" />
<rect x="470" y="417" width="131" height="109" fill="rgb(187,177,185)" />
<rect x="332" y="417" width="138" height="109" fill="rgb(146,182,102)" />
<rect x="215" y="417" width="117" height="109" fill="rgb(105,187,19)" />
<rect x="109" y="417" width="106" height="109" fill="rgb(64,192,192)" />
<rect x="68" y="417" width="41" height="109" fill="rgb(23,197,109)" />
<rect x="10" y="417" width="58" height="109" fill="rgb(238,202,26)" />
<rect x="1434" y="308" width="77" height="109" fill="rgb(197,207,199)" />
<rect x="1284" y="308" width="150" height="109" fill="rgb(156,212,116)" />
<rect x="1247" y="308" width="37" height="109" fill="rgb(115,217,33)" />
<rect x="1217" y="308" width="30" height="109" fill="rgb(74,222,206)" />
<rect x="1195" y="308" width="22" height="109" fill="rgb(33,227,123)" />
<rect x="962" y="308" width="233" height="109" fill="rgb(24,72,136)" />
<rect x="950" y="308" width="12" height="109" fill="rgb(239,77,53)" />
<rect x="946" y="308" width="4" height="109" fill="rgb(12,36,68)" />
<rect x="941" y="308" width="5" height="109" fill="rgb(227,41,241)" />
<rect x="927" y="308" width="14" height="109" fill="rgb(186,46,158)" />
<rect x="924" y="308" width="3" height="109" fill="rgb(116,92,60)" />
<rect x="922" y="308" width="2" height="109" fill="rgb(124,116,20)" />
<rect x="844" y="308" width="78" height="109" fill="rgb(136,152,88)" />
<rect x="825" y="308" width="19" height="109" fill="rgb(157,87,143)" />
<rect x="816" y="308" width="9" height="109" fill="rgb(198,82,226)" />
<rect x="815" y="308" width="1" height="109" fill="rgb(3,137,81)" />
<rect x="714" y="308" width="101" height="109" fill="rgb(228,172,12)" />
<rect x="555" y="308" width="159" height="109" fill="rgb(13,167,95)" />
<rect x="481" y="308" width="74" height="109" fill="rgb(54,162,178)" />
<rect x="394" y="308" width="87" height="109" fill="rgb(95,157,5)" />
<rect x="291" y="308" width="103" height="109" fill="rgb(177,147,171)" />
<rect x="257" y="308" width="34" height="109" fill="rgb(218,142,254)" />
<rect x="251" y="308" width="6" height="109" fill="rgb(65,67,219)" />
<rect x="249" y="308" width="2" height="109" fill="rgb(248,232,40)" />
<rect x="247" y="308" width="2" height="109" fill="rgb(155,81,89)" />
<rect x="246" y="308" width="1" height="109" fill="rgb(126,122,74)" />
<rect x="237" y="308" width="9" height="109" fill="rgb(106,62,46)" />
<rect x="225" y="308" width="12" height="109" fill="rgb(147,57,129)" />
<rect x="201" y="308" width="24" height="109" fill="rgb(188,52,212)" />
<rect x="183" y="308" width="18" height="109" fill="rgb(229,47,39)" />
<rect x="182" y="308" width="1" height="109" fill="rgb(249,107,67)" />
<rect x="181" y="308" width="1" height="109" fill="rgb(33,227,123)" />
<rect x="180" y="308" width="1" height="109" fill="rgb(104,56,248)" />
<rect x="179" y="308" width="1" height="109" fill="rgb(157,87,143)" />
<rect x="178" y="308" width="1" height="109" fill="rgb(34,102,150)" />
<rect x="176" y="308" width="2" height="109" fill="rgb(186,46,158)" />
<rect x="174" y="308" width="2" height="109" fill="rgb(198,82,226)" />
<rect x="163" y="308" width="11" height="109" fill="rgb(14,42,122)" />
<rect x="160" y="308" width="3" height="109" fill="rgb(74,222,206)" />
<rect x="159" y="308" width="1" height="109" fill="rgb(227,41,241)" />
<rect x="158" y="308" width="1" height="109" fill="rgb(252,244,148)" />
<rect x="157" y="308" width="1" height="109" fill="rgb(169,123,211)" />
<rect x="156" y="308" width="1" height="109" fill="rgb(210,118,38)" />
<rect x="155" y="308" width="1" height="109" fill="rgb(159,93,197)" />
<rect x="1545" y="199" width="1" height="109" fill="rgb(200,88,24)" />
<rect x="152" y="308" width="3" height="109" fill="rgb(170,254,238)" />
<rect x="150" y="308" width="2" height="109" fill="rgb(211,249,65)" />
<rect x="147" y="308" width="3" height="109" fill="rgb(107,193,73)" />
<rect x="144" y="308" width="3" height="109" fill="rgb(148,188,156)" />
<rect x="141" y="308" width="3" height="109" fill="rgb(58,174,30)" />
<rect x="1544" y="199" width="1" height="109" fill="rgb(140,164,196)" />
<rect x="136" y="308" width="5" height="109" fill="rgb(7,149,189)" />
<rect x="1537" y="199" width="7" height="109" fill="rgb(48,144,16)" />
<rect x="1534" y="199" width="3" height="109" fill="rgb(25,203,163)" />
<rect x="1529" y="199" width="5" height="109" fill="rgb(130,134,182)" />
<rect x="1522" y="199" width="7" height="109" fill="rgb(171,129,9)" />
<rect x="1521" y="199" width="1" height="109" fill="rgb(15,173,149)" />
<rect x="91" y="308" width="45" height="109" fill="rgb(3,137,81)" />
<rect x="64" y="308" width="27" height="109" fill="rgb(44,132,164)" />
<rect x="1516" y="199" width="5" height="109" fill="rgb(85,127,247)" />
<rect x="1541" y="90" width="5" height="109" fill="rgb(126,122,74)" />
<rect x="10" y="308" width="54" height="109" fill="rgb(167,117,157)" />
<rect x="1472" y="199" width="44" height="109" fill="rgb(208,112,240)" />
<rect x="1460" y="199" width="12" height="109" fill="rgb(243,89,161)" />
<rect x="1443" y="199" width="17" height="109" fill="rgb(28,84,244)" />
<rect x="1435" y="199" width="8" height="109" fill="rgb(214,130,146)" />
<rect x="1414" y="199" width="21" height="109" fill="rgb(69,79,71)" />
<rect x="1327" y="199" width="87" height="109" fill="rgb(110,74,154)" />
<rect x="1282" y="199" width="45" height="109" fill="rgb(151,69,237)" />
<rect x="1248" y="199" width="34" height="109" fill="rgb(192,64,64)" />
<rect x="1225" y="199" width="23" height="109" fill="rgb(233,59,147)" />
<rect x="1164" y="199" width="61" height="109" fill="rgb(18,54,230)" />
<rect x="1096" y="199" width="68" height="109" fill="rgb(59,49,57)" />
<rect x="1016" y="199" width="80" height="109" fill="rgb(100,44,140)" />
<rect x="940" y="199" width="76" height="109" fill="rgb(141,39,223)" />
<rect x="881" y="199" width="59" height="109" fill="rgb(182,34,50)" />
<rect x="789" y="199" width="92" height="109" fill="rgb(223,29,133)" />
<rect x="746" y="199" width="43" height="109" fill="rgb(8,24,216)" />
<rect x="696" y="199" width="50" height="109" fill="rgb(49,19,43)" />
<rect x="651" y="199" width="45" height="109" fill="rgb(90,14,126)" />
<rect x="592" y="199" width="59" height="109" fill="rgb(131,9,209)" />
<rect x="572" y="199" width="20" height="109" fill="rgb(172,4,36)" />
<rect x="546" y="199" width="26" height="109" fill="rgb(213,255,119)" />
<rect x="531" y="199" width="15" height="109" fill="rgb(254,250,202)" />
<rect x="500" y="199" width="31" height="109" fill="rgb(39,245,29)" />
<rect x="475" y="199" width="25" height="109" fill="rgb(80,240,112)" />
<rect x="432" y="199" width="43" height="109" fill="rgb(121,235,195)" />
<rect x="424" y="199" width="8" height="109" fill="rgb(162,230,22)" />
<rect x="415" y="199" width="9" height="109" fill="rgb(203,225,105)" />
<rect x="404" y="199" width="11" height="109" fill="rgb(244,220,188)" />
<rect x="269" y="199" width="135" height="109" fill="rgb(29,215,15)" />
<rect x="255" y="199" width="14" height="109" fill="rgb(70,210,98)" />
<rect x="245" y="199" width="10" height="109" fill="rgb(111,205,181)" />
<rect x="239" y="199" width="6" height="109" fill="rgb(152,200,8)" />
<rect x="164" y="199" width="75" height="109" fill="rgb(249,107,67)" />
<rect x="158" y="199" width="6" height="109" fill="rgb(34,102,150)" />
<rect x="144" y="199" width="14" height="109" fill="rgb(75,97,233)" />
<rect x="1540" y="90" width="1" height="109" fill="rgb(237,71,255)" />
<rect x="1524" y="90" width="16" height="109" fill="rgb(116,92,60)" />
<rect x="33" y="199" width="111" height="109" fill="rgb(112,80,208)" />
<rect x="10" y="199" width="23" height="109" fill="rgb(183,165,77)" />
<rect x="1492" y="90" width="32" height="109" fill="rgb(224,160,160)" />
<rect x="1477" y="90" width="15" height="109" fill="rgb(9,155,243)" />
<rect x="1437" y="90" width="40" height="109" fill="rgb(50,150,70)" />
<rect x="1275" y="90" width="162" height="109" fill="rgb(91,145,153)" />
<rect x="1191" y="90" width="84" height="109" fill="rgb(132,140,236)" />
<rect x="1128" y="90" width="63" height="109" fill="rgb(173,135,63)" />
<rect x="1084" y="90" width="44" height="109" fill="rgb(214,130,146)" />
<rect x="970" y="90" width="114" height="109" fill="rgb(255,125,229)" />
<rect x="843" y="90" width="127" height="109" fill="rgb(40,120,56)" />
<rect x="693" y="90" width="150" height="109" fill="rgb(81,115,139)" />
<rect x="551" y="90" width="142" height="109" fill="rgb(122,110,222)" />
<rect x="441" y="90" width="110" height="109" fill="rgb(163,105,49)" />
<rect x="269" y="90" width="172" height="109" fill="rgb(204,100,132)" />
<rect x="189" y="90" width="80" height="109" fill="rgb(245,95,215)" />
<rect x="95" y="90" width="94" height="109" fill="rgb(30,90,42)" />
<rect x="10" y="90" width="85" height="109" fill="rgb(71,85,125)" />
<rect x="10" y="90" width="1536" height="1536" fill="none" stroke="black" stroke-width="5" />
<text x="10" y="80" font-family="Arial" font-size="80" fill="black">stb_rect_pack 1536x1536 240 items</text>
</svg>