<svg xmlns="http://www.w3.org/2000/svg" viewBox="0 0 1556 1636">
<rect x="1380" y="888" width="48" height="109" fill="rgb(75,97,233)" />
<rect x="849" y="90" width="255" height="109" fill="rgb(34,102,150)" />
<rect x="1481" y="779" width="14" height="109" fill="rgb(249,107,67)" />
<rect x="10" y="997" width="103" height="109" fill="rgb(208,112,240)" />
<rect x="594" y="90" width="255" height="109" fill="rgb(167,117,157)" />
<rect x="256" y="90" width="255" height="109" fill="rgb(126,122,74)" />
<rect x="1322" y="888" width="58" height="109" fill="rgb(85,127,247)" />
<rect x="1297" y="888" width="25" height="109" fill="rgb(44,132,164)" />
<rect x="1140" y="888" width="157" height="109" fill="rgb(3,137,81)" />
<rect x="990" y="888" width="150" height="109" fill="rgb(218,142,254)" />
<rect x="881" y="670" width="15" height="109" fill="rgb(177,147,171)" />
<rect x="735" y="888" width="255" height="109" fill="rgb(136,152,88)" />
<rect x="625" y="888" width="110" height="109" fill="rgb(95,157,5)" />
<rect x="585" y="888" width="40" height="109" fill="rgb(54,162,178)" />
<rect x="1500" y="561" width="7" height="109" fill="rgb(13,167,95)" />
<rect x="1493" y="561" width="7" height="109" fill="rgb(228,172,12)" />
<rect x="520" y="888" width="65" height="109" fill="rgb(187,177,185)" />
<rect x="1397" y="779" width="84" height="109" fill="rgb(146,182,102)" />
<rect x="1354" y="779" width="43" height="109" fill="rgb(105,187,19)" />
<rect x="1506" y="670" width="32" height="109" fill="rgb(64,192,192)" />
<rect x="702" y="452" width="7" height="109" fill="rgb(23,197,109)" />
<rect x="695" y="452" width="7" height="109" fill="rgb(238,202,26)" />
<rect x="860" y="670" width="21" height="109" fill="rgb(197,207,199)" />
<rect x="782" y="670" width="32" height="109" fill="rgb(156,212,116)" />
<rect x="1285" y="779" width="69" height="109" fill="rgb(115,217,33)" />
<rect x="724" y="670" width="58" height="109" fill="rgb(74,222,206)" />
<rect x="1442" y="561" width="51" height="109" fill="rgb(33,227,123)" />
<rect x="1519" y="452" width="21" height="109" fill="rgb(248,232,40)" />
<rect x="265" y="888" width="255" height="109" fill="rgb(207,237,213)" />
<rect x="927" y="452" width="18" height="109" fill="rgb(166,242,130)" />
<rect x="599" y="452" width="18" height="109" fill="rgb(125,247,47)" />
<rect x="10" y="888" width="255" height="109" fill="rgb(84,252,220)" />
<rect x="1030" y="779" width="255" height="109" fill="rgb(43,1,137)" />
<rect x="1395" y="561" width="47" height="109" fill="rgb(2,6,54)" />
<rect x="775" y="779" width="255" height="109" fill="rgb(217,11,227)" />
<rect x="520" y="779" width="255" height="109" fill="rgb(176,16,144)" />
<rect x="265" y="779" width="255" height="109" fill="rgb(135,21,61)" />
<rect x="10" y="779" width="255" height="109" fill="rgb(94,26,234)" />
<rect x="1364" y="670" width="142" height="109" fill="rgb(53,31,151)" />
<rect x="520" y="670" width="204" height="109" fill="rgb(12,36,68)" />
<rect x="265" y="670" width="255" height="109" fill="rgb(227,41,241)" />
<rect x="10" y="670" width="255" height="109" fill="rgb(186,46,158)" />
<rect x="1542" y="343" width="3" height="109" fill="rgb(145,51,75)" />
<rect x="589" y="452" width="10" height="109" fill="rgb(104,56,248)" />
<rect x="890" y="452" width="37" height="109" fill="rgb(63,61,165)" />
<rect x="583" y="452" width="6" height="109" fill="rgb(22,66,82)" />
<rect x="1536" y="343" width="6" height="109" fill="rgb(237,71,255)" />
<rect x="1533" y="343" width="3" height="109" fill="rgb(196,76,172)" />
<rect x="1530" y="343" width="3" height="109" fill="rgb(155,81,89)" />
<rect x="1527" y="343" width="3" height="109" fill="rgb(114,86,6)" />
<rect x="906" y="343" width="3" height="109" fill="rgb(73,91,179)" />
<rect x="748" y="343" width="3" height="109" fill="rgb(32,96,96)" />
<rect x="1335" y="561" width="60" height="109" fill="rgb(247,101,13)" />
<rect x="1258" y="561" width="77" height="109" fill="rgb(206,106,186)" />
<rect x="543" y="452" width="40" height="109" fill="rgb(165,111,103)" />
<rect x="513" y="452" width="30" height="109" fill="rgb(124,116,20)" />
<rect x="1543" y="234" width="3" height="109" fill="rgb(83,121,193)" />
<rect x="1521" y="343" width="6" height="109" fill="rgb(42,126,110)" />
<rect x="1336" y="343" width="6" height="109" fill="rgb(1,131,27)" />
<rect x="1501" y="343" width="20" height="109" fill="rgb(216,136,200)" />
<rect x="1296" y="343" width="40" height="109" fill="rgb(175,141,117)" />
<rect x="1540" y="234" width="3" height="109" fill="rgb(134,146,34)" />
<rect x="876" y="343" width="30" height="109" fill="rgb(93,151,207)" />
<rect x="449" y="452" width="64" height="109" fill="rgb(52,156,124)" />
<rect x="1242" y="343" width="54" height="109" fill="rgb(11,161,41)" />
<rect x="866" y="343" width="10" height="109" fill="rgb(226,166,214)" />
<rect x="1537" y="234" width="3" height="109" fill="rgb(185,171,131)" />
<rect x="819" y="343" width="47" height="109" fill="rgb(144,176,48)" />
<rect x="799" y="343" width="20" height="109" fill="rgb(103,181,221)" />
<rect x="1015" y="561" width="243" height="109" fill="rgb(62,186,138)" />
<rect x="783" y="343" width="16" height="109" fill="rgb(21,191,55)" />
<rect x="732" y="343" width="16" height="109" fill="rgb(236,196,228)" />
<rect x="759" y="561" width="256" height="109" fill="rgb(195,201,145)" />
<rect x="506" y="561" width="253" height="109" fill="rgb(154,206,62)" />
<rect x="250" y="561" width="256" height="109" fill="rgb(113,211,235)" />
<rect x="10" y="561" width="240" height="109" fill="rgb(72,216,152)" />
<rect x="1263" y="452" width="256" height="109" fill="rgb(31,221,69)" />
<rect x="1007" y="452" width="256" height="109" fill="rgb(246,226,242)" />
<rect x="1369" y="343" width="132" height="109" fill="rgb(205,231,159)" />
<rect x="260" y="452" width="189" height="109" fill="rgb(164,236,76)" />
<rect x="10" y="452" width="250" height="109" fill="rgb(123,241,249)" />
<rect x="986" y="343" width="256" height="109" fill="rgb(82,246,166)" />
<rect x="720" y="343" width="12" height="109" fill="rgb(41,251,83)" />
<rect x="700" y="343" width="20" height="109" fill="rgb(0,0,0)" />
<rect x="674" y="343" width="26" height="109" fill="rgb(215,5,173)" />
<rect x="661" y="343" width="13" height="109" fill="rgb(174,10,90)" />
<rect x="651" y="343" width="10" height="109" fill="rgb(133,15,7)" />
<rect x="399" y="343" width="252" height="109" fill="rgb(92,20,180)" />
<rect x="386" y="343" width="13" height="109" fill="rgb(51,25,97)" />
<rect x="376" y="343" width="10" height="109" fill="rgb(10,30,14)" />
<rect x="355" y="343" width="21" height="109" fill="rgb(225,35,187)" />
<rect x="337" y="343" width="18" height="109" fill="rgb(184,40,104)" />
<rect x="1522" y="234" width="15" height="109" fill="rgb(143,45,21)" />
<rect x="256" y="343" width="81" height="109" fill="rgb(102,50,194)" />
<rect x="209" y="343" width="47" height="109" fill="rgb(61,55,111)" />
<rect x="150" y="343" width="59" height="109" fill="rgb(20,60,28)" />
<rect x="121" y="343" width="29" height="109" fill="rgb(235,65,201)" />
<rect x="1474" y="234" width="48" height="109" fill="rgb(194,70,118)" />
<rect x="1437" y="234" width="37" height="109" fill="rgb(153,75,35)" />
<rect x="10" y="343" width="111" height="109" fill="rgb(112,80,208)" />
<rect x="1352" y="234" width="85" height="109" fill="rgb(71,85,125)" />
<rect x="1258" y="234" width="94" height="109" fill="rgb(30,90,42)" />
<rect x="1178" y="234" width="80" height="109" fill="rgb(245,95,215)" />
<rect x="1006" y="234" width="172" height="109" fill="rgb(204,100,132)" />
<rect x="896" y="234" width="110" height="109" fill="rgb(163,105,49)" />
<rect x="754" y="234" width="142" height="109" fill="rgb(122,110,222)" />
<rect x="604" y="234" width="150" height="109" fill="rgb(81,115,139)" />
<rect x="477" y="234" width="127" height="109" fill="rgb(40,120,56)" />
<rect x="363" y="234" width="114" height="109" fill="rgb(255,125,229)" />
<rect x="319" y="234" width="44" height="109" fill="rgb(214,130,146)" />
<rect x="256" y="234" width="63" height="109" fill="rgb(173,135,63)" />
<rect x="172" y="234" width="84" height="109" fill="rgb(132,140,236)" />
<rect x="10" y="234" width="162" height="109" fill="rgb(91,145,153)" />
<rect x="554" y="90" width="40" height="109" fill="rgb(50,150,70)" />
<rect x="241" y="90" width="15" height="109" fill="rgb(9,155,243)" />
<rect x="522" y="90" width="32" height="109" fill="rgb(224,160,160)" />
<rect x="1509" y="997" width="23" height="109" fill="rgb(183,165,77)" />
<rect x="149" y="90" width="92" height="107" fill="rgb(142,170,250)" />
<rect x="1495" y="1427" width="50" height="107" fill="rgb(101,175,167)" />
<rect x="83" y="90" width="66" height="107" fill="rgb(60,180,84)" />
<rect x="10" y="90" width="73" height="107" fill="rgb(19,185,1)" />
<rect x="1417" y="997" width="92" height="107" fill="rgb(234,190,174)" />
<rect x="1367" y="997" width="50" height="107" fill="rgb(193,195,91)" />
<rect x="1361" y="997" width="6" height="109" fill="rgb(152,200,8)" />
<rect x="1351" y="997" width="10" height="109" fill="rgb(111,205,181)" />
<rect x="1337" y="997" width="14" height="109" fill="rgb(70,210,98)" />
<rect x="1202" y="997" width="135" height="109" fill="rgb(29,215,15)" />
<rect x="1191" y="997" width="11" height="109" fill="rgb(244,220,188)" />
<rect x="1182" y="997" width="9" height="109" fill="rgb(203,225,105)" />
<rect x="1174" y="997" width="8" height="109" fill="rgb(162,230,22)" />
<rect x="1131" y="997" width="43" height="109" fill="rgb(121,235,195)" />
<rect x="1106" y="997" width="25" height="109" fill="rgb(80,240,112)" />
<rect x="1075" y="997" width="31" height="109" fill="rgb(39,245,29)" />
<rect x="1060" y="997" width="15" height="109" fill="rgb(254,250,202)" />
<rect x="1034" y="997" width="26" height="109" fill="rgb(213,255,119)" />
<rect x="1014" y="997" width="20" height="109" fill="rgb(172,4,36)" />
<rect x="955" y="997" width="59" height="109" fill="rgb(131,9,209)" />
<rect x="910" y="997" width="45" height="109" fill="rgb(90,14,126)" />
<rect x="860" y="997" width="50" height="109" fill="rgb(49,19,43)" />
<rect x="817" y="997" width="43" height="109" fill="rgb(8,24,216)" />
<rect x="725" y="997" width="92" height="109" fill="rgb(223,29,133)" />
<rect x="666" y="997" width="59" height="109" fill="rgb(182,34,50)" />
<rect x="590" y="997" width="76" height="109" fill="rgb(141,39,223)" />
<rect x="510" y="997" width="80" height="109" fill="rgb(100,44,140)" />
<rect x="442" y="997" width="68" height="109" fill="rgb(59,49,57)" />
<rect x="381" y="997" width="61" height="109" fill="rgb(18,54,230)" />
<rect x="288" y="997" width="23" height="109" fill="rgb(233,59,147)" />
<rect x="347" y="997" width="34" height="109" fill="rgb(192,64,64)" />
<rect x="243" y="997" width="45" height="109" fill="rgb(151,69,237)" />
<rect x="156" y="997" width="87" height="109" fill="rgb(110,74,154)" />
<rect x="1524" y="888" width="21" height="109" fill="rgb(69,79,71)" />
<rect x="1516" y="888" width="8" height="109" fill="rgb(214,130,146)" />
<rect x="1499" y="888" width="17" height="109" fill="rgb(28,84,244)" />
<rect x="1487" y="888" width="12" height="109" fill="rgb(243,89,161)" />
<rect x="1466" y="1320" width="49" height="107" fill="rgb(202,94,78)" />
<rect x="1502" y="1213" width="26" height="107" fill="rgb(161,99,251)" />
<rect x="1254" y="1213" width="35" height="107" fill="rgb(120,104,168)" />
<rect x="1463" y="1213" width="39" height="107" fill="rgb(79,109,85)" />
<rect x="1414" y="1213" width="49" height="107" fill="rgb(7,149,189)" />
<rect x="953" y="1213" width="26" height="107" fill="rgb(222,154,106)" />
<rect x="1545" y="670" width="1" height="109" fill="rgb(15,173,149)" />
<rect x="1447" y="888" width="7" height="109" fill="rgb(171,129,9)" />
<rect x="1442" y="888" width="5" height="109" fill="rgb(130,134,182)" />
<rect x="1439" y="888" width="3" height="109" fill="rgb(25,203,163)" />
<rect x="1432" y="888" width="7" height="109" fill="rgb(48,144,16)" />
<rect x="1541" y="779" width="5" height="109" fill="rgb(7,149,189)" />
<rect x="1545" y="561" width="1" height="109" fill="rgb(140,164,196)" />
<rect x="1538" y="779" width="3" height="109" fill="rgb(58,174,30)" />
<rect x="1535" y="779" width="3" height="109" fill="rgb(148,188,156)" />
<rect x="1532" y="779" width="3" height="109" fill="rgb(107,193,73)" />
<rect x="1507" y="779" width="2" height="109" fill="rgb(211,249,65)" />
<rect x="1504" y="779" width="3" height="109" fill="rgb(170,254,238)" />
<rect x="1544" y="561" width="1" height="109" fill="rgb(200,88,24)" />
<rect x="1541" y="561" width="1" height="109" fill="rgb(159,93,197)" />
<rect x="1540" y="561" width="1" height="109" fill="rgb(210,118,38)" />
<rect x="1545" y="452" width="1" height="109" fill="rgb(169,123,211)" />
<rect x="1006" y="452" width="1" height="109" fill="rgb(252,244,148)" />
<rect x="694" y="452" width="1" height="109" fill="rgb(227,41,241)" />
<rect x="887" y="452" width="3" height="109" fill="rgb(74,222,206)" />
<rect x="1353" y="670" width="11" height="109" fill="rgb(14,42,122)" />
<rect x="692" y="452" width="2" height="109" fill="rgb(198,82,226)" />
<rect x="690" y="452" width="2" height="109" fill="rgb(186,46,158)" />
<rect x="689" y="452" width="1" height="109" fill="rgb(34,102,150)" />
<rect x="688" y="452" width="1" height="109" fill="rgb(157,87,143)" />
<rect x="687" y="452" width="1" height="109" fill="rgb(104,56,248)" />
<rect x="1368" y="343" width="1" height="109" fill="rgb(33,227,123)" />
<rect x="1367" y="343" width="1" height="109" fill="rgb(249,107,67)" />
<rect x="1335" y="670" width="18" height="109" fill="rgb(229,47,39)" />
<rect x="1311" y="670" width="24" height="109" fill="rgb(188,52,212)" />
<rect x="1520" y="561" width="12" height="109" fill="rgb(147,57,129)" />
<rect x="1511" y="561" width="9" height="109" fill="rgb(106,62,46)" />
<rect x="1366" y="343" width="1" height="109" fill="rgb(126,122,74)" />
<rect x="984" y="343" width="2" height="109" fill="rgb(155,81,89)" />
<rect x="982" y="343" width="2" height="109" fill="rgb(248,232,40)" />
<rect x="1360" y="343" width="6" height="109" fill="rgb(65,67,219)" />
<rect x="1078" y="670" width="233" height="109" fill="rgb(24,72,136)" />
<rect x="875" y="452" width="12" height="109" fill="rgb(239,77,53)" />
<rect x="981" y="343" width="1" height="109" fill="rgb(3,137,81)" />
<rect x="972" y="343" width="9" height="109" fill="rgb(198,82,226)" />
<rect x="668" y="452" width="19" height="109" fill="rgb(157,87,143)" />
<rect x="1344" y="343" width="16" height="109" fill="rgb(116,92,60)" />
<rect x="969" y="343" width="3" height="109" fill="rgb(116,92,60)" />
<rect x="968" y="343" width="1" height="109" fill="rgb(237,71,255)" />
<rect x="954" y="343" width="14" height="109" fill="rgb(75,97,233)" />
<rect x="948" y="343" width="6" height="109" fill="rgb(34,102,150)" />
<rect x="1003" y="670" width="75" height="109" fill="rgb(249,107,67)" />
<rect x="816" y="670" width="44" height="109" fill="rgb(208,112,240)" />
<rect x="949" y="452" width="54" height="109" fill="rgb(167,117,157)" />
<rect x="943" y="343" width="5" height="109" fill="rgb(126,122,74)" />
<rect x="778" y="343" width="5" height="109" fill="rgb(85,127,247)" />
<rect x="751" y="343" width="27" height="109" fill="rgb(44,132,164)" />
<rect x="623" y="452" width="45" height="109" fill="rgb(3,137,81)" />
<rect x="909" y="343" width="34" height="109" fill="rgb(218,142,254)" />
<rect x="900" y="670" width="103" height="109" fill="rgb(177,147,171)" />
<rect x="797" y="452" width="78" height="109" fill="rgb(136,152,88)" />
<rect x="710" y="452" width="87" height="109" fill="rgb(95,157,5)" />
<rect x="1421" y="1427" width="74" height="109" fill="rgb(54,162,178)" />
<rect x="1262" y="1427" width="159" height="109" fill="rgb(13,167,95)" />
<rect x="1161" y="1427" width="101" height="109" fill="rgb(228,172,12)" />
<rect x="1030" y="1427" width="131" height="109" fill="rgb(187,177,185)" />
<rect x="892" y="1427" width="138" height="109" fill="rgb(146,182,102)" />
<rect x="775" y="1427" width="117" height="109" fill="rgb(105,187,19)" />
<rect x="669" y="1427" width="106" height="109" fill="rgb(64,192,192)" />
<rect x="628" y="1427" width="41" height="109" fill="rgb(23,197,109)" />
<rect x="570" y="1427" width="58" height="109" fill="rgb(238,202,26)" />
<rect x="493" y="1427" width="77" height="109" fill="rgb(197,207,199)" />
<rect x="343" y="1427" width="150" height="109" fill="rgb(156,212,116)" />
<rect x="306" y="1427" width="37" height="109" fill="rgb(115,217,33)" />
<rect x="276" y="1427" width="30" height="109" fill="rgb(74,222,206)" />
<rect x="254" y="1427" width="22" height="109" fill="rgb(33,227,123)" />
<rect x="1420" y="1320" width="46" height="107" fill="rgb(207,237,213)" />
<rect x="1359" y="1320" width="61" height="107" fill="rgb(166,242,130)" />
<rect x="1291" y="1320" width="68" height="107" fill="rgb(125,247,47)" />
<rect x="1206" y="1320" width="85" height="107" fill="rgb(84,252,220)" />
<rect x="1160" y="1320" width="46" height="107" fill="rgb(43,1,137)" />
<rect x="1540" y="997" width="4" height="109" fill="rgb(12,36,68)" />
<rect x="1535" y="997" width="5" height="109" fill="rgb(227,41,241)" />
<rect x="62" y="1427" width="14" height="109" fill="rgb(186,46,158)" />
<rect x="169" y="1427" width="85" height="107" fill="rgb(248,232,40)" />
<rect x="1544" y="997" width="2" height="109" fill="rgb(124,116,20)" />
<rect x="10" y="90" width="1536" height="1536" fill="none" stroke="black" stroke-width="5" />
<text x="10" y="80" font-family="Arial" font-size="80" fill="black">smol-atlas 1536x1536 240 items</text>
</svg>